<?xml version="1.0" encoding="UTF-8"?>
<!DOCTYPE svg PUBLIC "-//W3C//DTD SVG 1.1//EN" "http://www.w3.org/Graphics/SVG/1.1/DTD/svg11.dtd">
<!-- Creator: CorelDRAW -->
<svg xmlns="http://www.w3.org/2000/svg" xml:space="preserve" width="66.1458mm" height="66.1458mm" version="1.1" style="shape-rendering:geometricPrecision; text-rendering:geometricPrecision; image-rendering:optimizeQuality; fill-rule:evenodd; clip-rule:evenodd"
viewBox="0 0 6614.58 6614.58"
 xmlns:xlink="http://www.w3.org/1999/xlink"
 xmlns:xodm="http://www.corel.com/coreldraw/odm/2003">
 <defs>
  <style type="text/css">
   <![CDATA[
    .fil2 {fill:#1E2629}
    .fil3 {fill:#404549}
    .fil0 {fill:#BB2A49}
    .fil5 {fill:#D2D9DC}
    .fil1 {fill:#D62D4A}
    .fil4 {fill:white}
    .fil6 {fill:black;fill-rule:nonzero}
   ]]>
  </style>
 </defs>
 <g id="Camada_x0020_1">
  <metadata id="CorelCorpID_0Corel-Layer"/>
  <path class="fil0" d="M1920.33 2182.08c6.67,-88.69 -11.49,-45.79 7.79,-128.39 3.43,-14.69 1.59,-33.09 0.41,-47.69l-3.3 -2.47c-213.28,-40.57 -166.81,-327.16 30.57,-319.77 85.75,3.22 155.11,68.07 159,153.14 4.58,100.01 -61.84,143.22 -144.01,168.52l-1.09 59.12 11.4 2.53 -0.64 114.79c41.35,-16.05 100.73,-60.9 133.33,-85.36 117.76,-88.35 236.75,-221.11 265.22,-381.27 25.22,-141.93 -35.91,-241.31 -140.89,-278.91 -61.57,-22.05 -130.17,-14.76 -182.16,12.84 -25.58,13.57 -45.43,28.6 -61.43,46.85 -18.55,21.13 -26.6,42.17 -43.14,64.08 -34.31,-46.1 -34.39,-73.35 -104.59,-110.96 -52.37,-28.05 -120.87,-34.53 -182.08,-12.94 -107.73,38.01 -165.26,138.5 -140.93,279.19 36.58,211.54 240.82,384.18 396.54,466.7z"/>
  <path class="fil1" d="M1920.33 2182.08c17.57,383.29 -81.76,661.04 358.59,724.27l-87.47 -85.71c-220.32,-138.71 -181.92,-86.16 -210.98,-638.78l0.63 -114.8 -11.4 -2.52 -39 -1.6 -0.44 -56.93 -1.73 0c1.19,14.59 3.02,32.99 -0.42,47.68 -19.27,82.6 -1.11,39.7 -7.78,128.39z"/>
  <path class="fil2" d="M1925.23 2003.53c0.76,-66.08 -13.6,-29.28 -55.96,-67.55 -20.3,-18.33 -40.37,-39.97 -44.12,-79.78 -15.3,-162.75 232.9,-177.34 248.42,-28.22 8.56,82.18 -59.88,141.58 -103.58,129.76l0.8 47.68c82.17,-25.3 148.59,-68.51 144.01,-168.52 -3.89,-85.07 -73.25,-149.92 -159,-153.14 -197.38,-7.39 -243.85,279.2 -30.57,319.77z"/>
  <path class="fil3" d="M1925.23 2003.53l3.3 2.47 1.73 0 -0.09 -97.53c-82.03,-40.68 -48.62,-126.9 16.44,-129.74 33.89,-1.47 65.08,24.38 69.47,53.47 5.35,35.48 -17.61,71.53 -45.17,72.26l-0.92 53.28c43.7,11.82 112.14,-47.58 103.58,-129.76 -15.52,-149.12 -263.72,-134.53 -248.42,28.22 3.75,39.81 23.82,61.45 44.12,79.78 42.36,38.27 56.72,1.47 55.96,67.55z"/>
  <path class="fil4" d="M1930.17 1908.47c22.52,1.85 19.63,3.98 40.74,-4.01 27.56,-0.73 50.52,-36.78 45.17,-72.26 -4.39,-29.09 -35.58,-54.94 -69.47,-53.47 -65.06,2.84 -98.47,89.06 -16.44,129.74z"/>
  <g id="_2158473887024">
   <path class="fil1" d="M5255.82 2282.09c-10.21,6.57 -23.15,12.1 -37.53,15.55 -10.98,7.58 -4.01,2.33 -12.5,12.55 31.07,37.33 28.79,55.33 83.77,110.89 39.67,40.09 72.22,59.01 122.82,91.83 78.62,27.61 129.2,57.16 214.29,50.06 105.01,3.25 212.18,-43.92 275.88,-85.99 -3.62,-12.31 0.01,-4.56 -6.11,-15.18 -13.63,-14.49 -20.69,-18.52 -26,-36.11 -9.39,-4.61 -7.87,-4.84 -18.73,-11.33 -60.68,57.05 -210.65,87.45 -316.79,61.83 -143.64,-34.67 -206.13,-123.19 -259.13,-199.59l-19.97 5.49z"/>
   <path class="fil5" d="M5218.29 2297.64c14.38,-3.45 27.32,-8.98 37.53,-15.55 -10.33,-31.44 -50.36,-74.19 -76.59,-179.05 -33.14,-132.46 -26.66,-319.75 126.91,-371.43 32.65,-10.99 70.12,-16.03 112.63,-7.24 28.44,5.88 78.86,21.07 93.13,47.9 0.62,1.16 1.18,2.67 1.7,3.79 0.56,1.2 1.19,3.11 1.62,4.12 0.46,1.05 0.98,2.9 1.57,4.31 7.96,-32.23 16.63,-37.63 49.99,-26.42 -9.26,-12.49 -88.38,-56.49 -109.83,-63.55 -122.79,-40.43 -256.9,14.6 -307.58,132.61 -50.05,116.55 -24.66,261.82 20.94,370.06 16.09,38.2 35.54,67.44 47.98,100.45z"/>
   <path class="fil5" d="M5830.73 1821.05c31.53,6.15 38.54,9.49 36.05,38.26 71.95,-24.07 162.41,6.22 209.84,57.88 39.81,43.36 69.7,110.13 48.96,194.12 -38.23,154.85 -159.94,263.25 -255.14,314.38 5.31,17.59 12.37,21.62 26,36.11 19.63,-21.72 81.05,-46.28 167.44,-147.04 102.02,-118.99 169.45,-313.85 23.86,-440.56 -66.58,-57.95 -165.64,-71.37 -251.73,-54.52 -1.57,0.31 -3.6,0.68 -5.28,1.37z"/>
   <path class="fil0" d="M5465 2622.98l60.18 13.86c83.49,23.23 83.07,-1.05 101.49,-73.87 -85.09,7.1 -135.67,-22.45 -214.29,-50.06 -17.36,76.77 -29.72,88.02 52.62,110.07z"/>
   <path class="fil2" d="M5516.79 1784.49c4.6,14.17 5.98,11.19 12.13,22.03 5.87,10.36 15.6,72.51 67.11,53.13 22.19,-8.35 30.05,-39.41 18.14,-59.27 -5.53,-9.23 -19.85,-14.73 -47.39,-42.31 -33.36,-11.21 -42.03,-5.81 -49.99,26.42z"/>
   <path class="fil2" d="M5866.78 1859.31c2.49,-28.77 -4.52,-32.11 -36.05,-38.26 -27.77,18.86 -33.32,4.52 -56.8,14.48 -18.84,7.99 -32.36,38.49 -15.98,61.12 34.19,47.22 79.94,-10.73 86.01,-14.98 9.57,-6.7 16.27,-7.67 22.82,-22.36z"/>
  </g>
  <path class="fil5" d="M1930.26 2006l0.44 56.94 39 1.6 1.09 -59.12 -0.8 -47.68 0.92 -53.28c-21.11,7.99 -18.22,5.86 -40.74,4.01l0.09 97.53z"/>
  <path class="fil6" d="M2870.23 2600.19c0,18.03 -12.38,40.39 -37.11,66.93 -6.12,6.7 -13.57,14 -22.51,22.2 -8.8,8.2 -18.19,16.4 -28.18,24.75 -9.83,8.2 -19.82,16.39 -29.95,24.59 -10,8.2 -19.39,15.65 -28.03,22.21 -28.02,21.62 -57.24,42.04 -87.8,61.26 -30.55,19.24 -61.56,36.07 -92.57,50.53 -31.15,14.61 -62.3,26.1 -93.3,34.59 -31,8.49 -60.97,12.66 -89.73,12.66 -31.46,0 -58.88,-4.46 -82.13,-13.56 -23.26,-9.09 -42.49,-21.76 -57.85,-38.45 -15.2,-16.55 -26.68,-36.53 -34.27,-60.07 -7.61,-23.41 -11.34,-49.49 -11.34,-78.26 -0.29,-26.23 2.39,-52.92 8.05,-80.04 5.67,-26.98 13.56,-53.66 23.85,-79.9 10.14,-26.08 22.36,-51.42 36.67,-75.72 14.31,-24.29 29.82,-46.8 46.65,-67.53 10.29,-12.52 21.77,-25.19 34.59,-38.15 12.82,-12.98 26.24,-25.49 40.39,-37.71 14.17,-12.23 28.47,-23.71 42.93,-34.29 14.61,-10.74 28.92,-20.13 42.78,-28.18 9.1,-5.36 20.57,-11.47 34.59,-18.33 14,-7.01 28.61,-13.57 44.12,-19.67 15.35,-6.12 30.71,-11.34 45.76,-15.51 15.2,-4.32 28.32,-6.41 39.35,-6.41 17.74,0 31.9,1.34 42.63,3.73 10.58,2.53 19.97,6.71 28.17,12.53 3.73,2.83 8.2,7.3 13.27,13.25 5.07,5.97 9.83,12.53 14.46,19.68 4.47,7.15 8.2,14.32 11.32,21.32 2.98,7.15 4.63,13.27 4.63,18.19 0,4.91 -2.39,12.37 -7.01,22.2 -4.62,10 -10.13,20.27 -16.25,30.86 -6.11,10.58 -12.22,20.56 -18.33,29.66 -6.11,9.24 -10.73,15.51 -13.87,19.08 -11.92,12.97 -24.74,19.53 -38.45,19.53 -11.63,0 -20.72,-3.44 -27.28,-10.59 -6.56,-7.15 -9.84,-16.09 -9.84,-26.97 0,-3.73 2.1,-9.54 6.56,-17.59 4.32,-8.05 11.63,-17.15 21.76,-27.28 10.29,-10.29 18.19,-19.68 23.86,-28.17 5.66,-8.65 9.24,-14.31 10.73,-17.29 -5.81,-4.03 -12.97,-7.31 -21.47,-9.54 -8.49,-2.39 -16.24,-3.58 -23.55,-3.58 -10.43,0 -23.4,2.39 -38.91,7.15 -15.35,4.92 -31.15,11.03 -47.39,18.63 -16.1,7.61 -31.9,15.96 -47.11,25.05 -15.35,9.24 -28.17,18.03 -38.6,26.53 -30.11,24.74 -57.69,51.28 -83.03,79.89 -25.34,28.47 -46.35,60.08 -62.9,94.81 -6.71,14.15 -12.97,29.07 -18.93,44.71 -5.96,15.51 -11.18,31.31 -15.51,47.41 -4.47,15.94 -7.89,31.89 -10.28,47.84 -2.53,15.8 -3.73,31 -3.73,45.61 0,17.15 1.94,33.1 5.81,48 4.03,14.91 10.44,27.58 19.53,38.46 8.95,10.74 20.88,19.23 35.63,25.34 14.6,6.11 32.79,9.09 54.26,9.09 23.39,0 47.25,-3.13 71.69,-9.54 24.45,-6.4 48.75,-15.05 73.04,-26.08 24.45,-10.88 48.45,-23.41 72.3,-37.56 23.85,-14.02 46.8,-28.78 68.86,-44.27 21.92,-15.36 42.78,-30.86 62.61,-46.22 19.82,-15.49 37.86,-30.1 54.1,-43.67 6.71,-5.66 13.87,-11.77 21.32,-18.33 7.31,-6.71 14.76,-13.42 21.91,-20.13 7.31,-6.7 14.46,-13.41 21.31,-20.12 6.86,-6.71 12.83,-12.81 18.05,-18.34 13.11,6.71 19.67,16.26 19.67,28.78zm414.39 17.14c0,13.56 -8.2,35.03 -24.9,64.09 -3.13,5.52 -7.59,12.23 -13.27,19.97 -5.66,7.61 -11.92,15.66 -18.93,24 -7,8.2 -14.31,16.7 -21.9,25.34 -7.61,8.51 -14.91,16.4 -22.22,23.71 -11.03,11.03 -23.25,21.91 -36.52,32.34 -13.26,10.44 -27.12,19.98 -41.88,28.32 -14.76,8.49 -29.81,15.36 -45.46,20.42 -15.51,5.07 -30.86,7.61 -46.06,7.61 -20.12,0 -38.9,-3.58 -56.34,-10.88 -17.44,-7.31 -32.65,-18.49 -45.62,-33.69 -12.97,-15.05 -23.11,-34.14 -30.55,-56.95 -7.46,-22.8 -11.19,-49.93 -11.19,-81.08 0,-21.17 1.14,-43.4 3.14,-66.48 3.82,-44.33 43.81,-390.78 63.25,-378.31l53.32 34.22c8.77,-21.55 -16.48,133.14 -18.35,142.56 -3.63,18.3 -7.15,38.01 -11.17,59.32 -3.88,21.32 -7.61,42.93 -10.88,65 -3.29,22.2 -6.12,43.96 -8.05,65.59 -2.09,21.46 -3.14,41.58 -3.14,60.21 0,20.12 1.64,38.46 4.92,54.85 3.13,16.41 8.35,30.56 15.35,42.19 7.16,11.63 16.41,20.57 27.58,26.98 11.18,6.41 24.89,9.69 40.84,9.69 17.44,0 34.58,-3.88 51.58,-11.62 16.84,-7.76 33.08,-17.6 48.59,-29.52 15.66,-11.92 30.41,-25.04 44.42,-39.5 13.86,-14.32 26.68,-28.32 38.46,-41.74 9.24,-11.03 17.44,-20.57 24.44,-28.47 6.86,-8.05 12.83,-14.9 17.44,-20.43 3.73,-4.32 8.05,-8.78 12.83,-13.56 4.76,-4.62 9.24,-6.85 13.41,-6.85 4.62,0 6.86,4.17 6.86,12.67zm152.48 -374.74c0,18.93 -4.91,35.03 -14.91,48.44 -9.54,13.42 -23.69,20.13 -42.32,20.13 -11.63,0 -24.61,-1.79 -38.91,-5.22 -13.87,-3.57 -20.87,-9.23 -20.87,-17.14 0,-14.16 4.32,-27.87 13.27,-40.7 8.94,-12.96 19.53,-23.54 32.05,-31.74 9.98,-5.82 16.54,-8.65 19.67,-8.65 16.69,0 29.37,2.24 38.45,6.71 9.1,4.48 13.57,13.87 13.57,28.17zm286.05 355.06c0.3,6.12 -2.39,14.31 -8.05,24.9 -5.82,10.43 -13.41,22.35 -23.26,35.47 -9.69,13.27 -21.01,27.58 -33.98,42.63 -12.97,15.2 -26.54,30.26 -40.84,45.47 -16.4,17.44 -33.54,34.28 -51.73,50.37 -18.19,16.25 -37.71,31.9 -58.27,46.96 -40.85,30.26 -77.22,45.46 -109.27,45.46 -35.18,0 -62.61,-11.78 -82.13,-35.32 -19.38,-24 -32.65,-52.77 -39.65,-86.61 -7.01,-33.39 -10.59,-67.96 -10.59,-103.45 0,-14.75 1.8,-38 5.37,-69.46 1.65,-15.64 3.43,-29.21 5.22,-40.54 1.63,-11.32 3.58,-20.57 5.66,-27.57 4.02,-13.72 12.67,-25.65 25.79,-35.78 13.42,-10.73 27.28,-16.1 41.89,-16.1 7.9,0 11.78,7.3 11.78,22.21 0,9.84 -0.9,21.17 -2.84,33.69 -1.94,12.52 -3.87,24.89 -5.82,37.11 -3.87,22.96 -6.7,43.53 -8.34,61.71 -1.79,18.19 -2.68,34 -2.68,47.41 0,29.36 4.17,59.18 12.22,89.13 8.19,30.56 22.95,45.76 44.12,45.76 21.61,0 46.66,-7.75 75.13,-23.54 14.31,-8.2 28.46,-17.15 42.78,-26.98 14.31,-9.99 28.61,-21.02 42.78,-33.24 14.61,-12.23 28.61,-24.61 42.03,-36.97 13.27,-12.37 26.39,-25.05 39.21,-38.16 12.81,-13.12 24.29,-25.34 34.57,-36.67 10.14,-11.33 19.09,-21.91 26.54,-31.45 0.29,-0.6 0.9,-1.49 1.63,-2.83 0.75,-1.34 1.49,-2.69 2.39,-3.88 0.9,-1.34 1.64,-2.53 2.54,-3.28 0.89,-0.89 1.78,-1.19 2.68,-0.89 4.02,0 7.15,3.13 9.1,9.54 2.68,6.1 4.02,11.03 4.02,14.9zm556.29 -256.83c0,9.99 -4.17,25.34 -12.68,46.36 -4.02,10.14 -7.89,19.08 -11.76,26.53 -3.73,7.6 -7.61,14.01 -11.34,19.23 -20.71,29.51 -54.4,60.07 -101.35,91.68 -47.1,31.74 -94.06,59.62 -141.02,83.47 -30.86,15.95 -61.71,30.4 -92.41,43.08 -30.7,12.66 -61.56,23.85 -92.72,33.83 -1.79,2.24 -2.68,7.9 -2.68,17l0 14.46c0,8.05 0.45,19.37 1.34,33.83 0.89,14.31 2.09,32.05 3.58,53.06 1.34,20.87 2.53,39.51 3.43,55.6 0.89,16.25 1.34,30.42 1.34,42.64 0,11.02 -3.43,19.81 -10.14,26.23 -6.71,6.41 -15.49,9.53 -26.53,9.53 -32.05,0 -48.15,-69.45 -48.15,-208.23l0 -12.66c0,-16.41 1.05,-34 3.14,-52.93 2.08,-18.92 4.76,-41.73 8.34,-68.56 1.34,-8.35 2.83,-17.15 4.03,-26.24 1.34,-8.94 2.68,-18.62 4.17,-28.76 2.98,-20.13 5.66,-37.42 8.34,-52.03 2.54,-14.46 5.82,-28.61 9.54,-42.32 0.9,-3.73 1.95,-8.2 3.14,-13.58 1.19,-5.21 2.39,-11.17 3.88,-17.88 2.98,-13.42 5.95,-25.19 9.24,-35.32 3.13,-9.85 7.3,-19.54 12.22,-28.78 4.91,-9.39 11.18,-18.18 18.78,-26.23 4.62,-1.79 9.69,-2.68 15.2,-2.68 10.88,0 18.93,3.27 24.3,9.83 5.36,6.56 8.05,15.51 8.05,26.83 0,1.49 -1.05,5.97 -3.28,13.42 -2.24,7.46 -4.62,15.36 -7.45,23.7 -2.69,8.5 -5.37,16.55 -7.76,24 -2.53,7.6 -4.02,12.37 -4.61,14.01 -2.39,6.12 -4.47,14.46 -6.56,24.9 -1.49,8.49 -2.98,17.14 -4.62,26.08 -1.65,8.8 -3.29,18.19 -5.07,28.17 -1.64,9.54 -3.29,19.24 -4.48,28.92 -1.34,9.84 -2.38,19.08 -3.27,28.03 -0.9,8.78 -1.79,17.13 -2.39,24.88 -0.74,7.76 -1.34,14.32 -1.64,19.83 9.39,-4.02 20.72,-8.8 33.84,-14.46 13.26,-5.51 28.62,-11.93 46.06,-19.08 34.43,-14.31 64.99,-27.87 91.82,-40.69 26.98,-12.82 53.36,-26.98 79,-42.33 16.85,-10.13 33.24,-21.76 49.19,-34.59 15.79,-12.66 31.3,-26.68 46.5,-41.88 30.26,-30.86 45.32,-59.47 45.32,-86.01 0,-12.22 -11.93,-21.46 -35.78,-27.87 -11.92,-3.28 -23.99,-5.81 -36.22,-7.76 -12.22,-1.78 -24.3,-3.27 -36.22,-4.32 -11.92,-1.04 -23.55,-1.63 -34.72,-1.93 -11.19,-0.31 -21.63,-0.45 -31.31,-0.45 -57.25,0 -118.21,6.26 -182.45,18.78 -31.15,6.7 -75.27,19.82 -132.37,39.36 -6.71,2.53 -11.77,3.87 -15.35,3.87 -6.26,0 -11.63,-1.94 -15.8,-5.97 -4.32,-3.87 -6.41,-9.09 -6.41,-15.49 0,-14.17 4.17,-25.8 12.53,-34.44 8.19,-8.8 20.27,-16.39 35.91,-23.1 17,-7.31 43.09,-14.76 78.71,-22.36 17.73,-3.73 35.48,-7.01 53.36,-9.84 18.03,-2.68 36.08,-5.22 54.41,-7.6 36.67,-4.32 64.24,-6.56 82.58,-6.56 15.65,0 30.85,0.15 45.61,0.44 14.76,0.31 29.07,0.9 43.22,1.95 14.17,1.04 28.33,2.68 42.34,4.76 14.17,2.24 28.47,5.07 43.08,8.65 29.07,6.86 53.51,18.34 73.34,33.98 19.83,15.51 29.66,36.08 29.66,62.01zm628.43 239.69c0,4.48 -3.28,12.22 -9.69,23.26 -15.05,21.76 -32.05,43.67 -50.83,65.43 -18.78,21.92 -38.76,42.63 -59.77,62.31 -21.17,19.68 -43.08,38.01 -66.04,55 -22.8,17 -45.91,31.75 -69.16,44.12 -23.26,12.37 -46.51,21.91 -69.61,28.62 -23.1,6.71 -45.46,9.83 -67.07,9.54 -46.51,0 -82.73,-13.57 -108.52,-40.54 -25.78,-27.13 -38.61,-67.98 -38.61,-122.83 0,-45.61 7.01,-90.03 21.17,-133.11 14.16,-43.08 38.15,-84.66 72.3,-124.47 6.41,-7 13.56,-13.71 21.61,-20.12 7.9,-6.41 16.39,-12.07 25.34,-16.98 8.79,-4.93 18.03,-8.95 27.42,-11.78 9.54,-2.98 19.09,-4.78 28.63,-5.22 2.37,0 5.51,0.3 9.68,0.74 4.03,0.6 8.35,1.65 13.12,3.14 4.62,1.49 9.09,3.27 13.42,5.51 4.47,2.08 7.9,4.76 10.58,8.05 8.05,9.24 14.6,18.93 19.38,28.76 4.77,10 7.45,20.88 8.04,32.8 0.6,13.42 -0.89,26.54 -4.61,39.5 -3.58,12.97 -9.7,26.24 -18.34,39.8 -8.49,13.42 -19.83,27.42 -33.83,41.88 -13.87,14.46 -30.86,29.97 -50.54,46.51 -12.52,10.44 -26.53,22.06 -41.73,34.73 -15.36,12.67 -33.69,25.94 -55.3,39.95 0,28.18 8.49,49.64 25.49,64.4 17.13,14.75 40.39,22.05 70.2,22.05 16.54,0 33.24,-2.24 50.23,-6.56 16.85,-4.32 33.39,-10.13 49.79,-17.29 16.25,-7.15 32.04,-15.2 47.25,-24.44 15.35,-9.1 29.66,-18.49 43.08,-28.17 24.74,-18.03 47.1,-35.93 67.22,-53.96 20.13,-17.89 40.1,-36.68 59.93,-56.49l23.54 -23.56c14.17,-12.52 24.61,-18.78 31.01,-18.78 3.43,0 5.22,2.68 5.22,8.2zm-333.59 -86.75c-0.31,-4.48 -1.05,-8.8 -2.09,-12.97 -0.9,-4.17 -2.54,-7.9 -4.47,-11.17 -2.09,-3.14 -4.48,-5.68 -7.01,-7.61 -2.69,-1.94 -5.67,-2.83 -9.24,-2.83 -15.36,0.89 -30.85,10.28 -46.21,28.17 -15.5,17.88 -29.96,41.59 -43.67,70.95 -3.28,6.41 -6.11,13.57 -8.5,21.62 -2.54,8.05 -4.91,16.24 -7.01,24.44 -2.23,8.34 -4.17,16.54 -5.66,24.74 -1.65,8.05 -2.99,15.36 -4.17,21.77 15.05,-11.34 29.06,-21.77 41.88,-31.46 12.82,-9.54 24.74,-19.52 35.78,-29.66 7,-6.41 14.16,-13.27 21.47,-20.71 7.29,-7.46 13.85,-15.21 19.81,-23.41 5.97,-8.2 10.73,-16.54 14.17,-25.34 3.58,-8.64 5.22,-17.59 4.92,-26.53zm695.96 333.59c-5.64,-1.44 -13.12,-2.08 -22.22,-6.11 -18.34,-8.5 -32.94,-23.85 -43.68,-46.36 -10.42,-22.35 -17.88,-45.76 -22.2,-70.35 -4.48,-24.45 -8.05,-51.73 -11.03,-81.98 -36.38,67.82 -83.48,128.04 -141.46,180.8 -58.28,52.92 -118.5,79.46 -180.81,79.46 -17.15,0 -30.25,-9.25 -39.2,-27.59 -9.1,-18.03 -13.56,-36.81 -13.56,-56.34 0,-26.08 2.08,-45.61 6.55,-58.42 12.23,-37.27 26.23,-72.3 42.04,-104.8 15.95,-32.64 35.17,-64.69 57.98,-96.14 14.75,-20.43 31.6,-40.7 50.53,-61.12 19.23,-20.41 37.27,-34.88 54.26,-43.68 20.87,-11.32 50.98,-16.98 90.33,-16.98 13.71,0 25.34,7.45 35.03,22.66 9.54,15.2 16.85,32.79 21.76,52.91 4.92,21.17 7.46,37.71 7.46,49.78 4.32,-14.3 8.34,-28.76 11.77,-43.52 3.43,-14.75 6.55,-29.95 9.09,-45.61 2.68,-15.8 5.07,-32.2 7.31,-49.64 2.08,-17.29 4.17,-35.77 5.81,-55.6 0.6,-5.22 1.19,-11.93 1.78,-20.12 0.61,-8.2 1.34,-17.74 2.24,-28.77 1.64,-22.8 3.44,-41.88 5.22,-57.53 1.79,-15.51 4.03,-25.64 7,-30.27 7.02,-11.91 19.24,-17.88 36.68,-17.88 8.64,0 17.29,1.78 25.78,5.66 8.95,3.43 13.42,8.36 13.42,14.76 0,3.58 -0.6,9.24 -1.94,17.14 -1.19,7.75 -3.13,18.04 -5.37,30.56 -2.38,12.52 -5.51,28.02 -9.39,46.51 -4.03,18.47 -8.2,40.54 -12.96,66.18 -0.3,2.83 -1.2,8.64 -2.54,17.44 -1.49,8.64 -3.12,17.88 -4.92,27.73 -1.64,9.68 -3.27,18.78 -4.76,26.98 -1.49,8.34 -2.24,13.56 -2.54,15.49 -3.88,23.71 -6.85,45.76 -9.24,66.49 -2.39,20.56 -3.43,41.58 -3.43,62.9 0,16.84 0.45,36.81 1.19,59.77 0.9,23.26 3.14,45.91 6.56,67.67 3.58,21.91 10.95,27.73 15.36,32.79 27.48,31.52 79.83,17.17 116.77,1.17 47.34,-20.52 63.58,-114.55 75.17,-135.82 23.26,5.76 69.35,15.87 79.11,19.27 -35.65,38.74 -50.67,242.65 -254.95,190.51zm-144 -219.26c-7.61,-1.8 -13.42,-5.52 -17.29,-11.34 -4.03,-5.81 -5.96,-12.37 -5.96,-19.66 0,-5.83 0.89,-14.47 2.68,-25.8 1.79,-11.32 2.54,-20.12 2.54,-26.23 0,-5.22 -1.34,-11.03 -4.03,-17.59 -2.83,-6.56 -6.41,-12.67 -10.73,-18.33 -4.33,-5.67 -9.24,-10.59 -14.61,-14.46 -5.36,-3.88 -10.73,-5.96 -15.95,-5.96 -15.51,0 -36.37,16.24 -62.9,48.59 -13.42,16.54 -25.64,32.34 -36.97,47.55 -11.18,15.2 -21.47,30.11 -30.7,45.01 -10.29,15.95 -18.94,30.71 -26.09,44.13 -7.01,13.41 -13.12,25.34 -18.03,35.77 -17.15,36.96 -25.8,66.03 -25.8,87.35 0,26.98 9.24,40.54 27.58,40.54 16.25,0 38.61,-9.39 67.23,-28.32 29.36,-20.12 52.02,-38.15 68.12,-54.1 16.54,-17.6 30.41,-32.2 41.44,-44.12 11.03,-11.93 19.82,-21.62 26.23,-28.93 6.41,-7.15 12.22,-15.35 17.74,-24.44 5.37,-8.95 10.43,-18.93 15.5,-29.66z"/>
 </g>
</svg>
