<?xml version="1.0" encoding="UTF-8"?>
<!DOCTYPE svg PUBLIC "-//W3C//DTD SVG 1.1//EN" "http://www.w3.org/Graphics/SVG/1.1/DTD/svg11.dtd">
<!-- Creator: CorelDRAW -->
<svg xmlns="http://www.w3.org/2000/svg" xml:space="preserve" width="66.1458mm" height="66.1458mm" version="1.1" style="shape-rendering:geometricPrecision; text-rendering:geometricPrecision; image-rendering:optimizeQuality; fill-rule:evenodd; clip-rule:evenodd"
viewBox="0 0 6614.58 6614.58"
 xmlns:xlink="http://www.w3.org/1999/xlink"
 xmlns:xodm="http://www.corel.com/coreldraw/odm/2003">
 <defs>
  <style type="text/css">
   <![CDATA[
    .fil2 {fill:#1E2629;fill-opacity:0.949020}
    .fil3 {fill:#404549;fill-opacity:0.949020}
    .fil0 {fill:#BB2A49;fill-opacity:0.949020}
    .fil5 {fill:#D2D9DC;fill-opacity:0.949020}
    .fil1 {fill:#D62D4A;fill-opacity:0.949020}
    .fil4 {fill:white;fill-opacity:0.949020}
    .fil6 {fill:black;fill-rule:nonzero;fill-opacity:0.949020}
   ]]>
  </style>
    <clipPath id="id0">
     <path d="M-13572.42 -3840.09l27862.14 0 0 5405.71 -27862.14 0 0 -5405.71z"/>
    </clipPath>
 </defs>
 <g id="Camada_x0020_1">
  <metadata id="CorelCorpID_0Corel-Layer"/>
  <g>
   <g style="clip-path:url(#id0)">
    <image x="-13572.42" y="-3840.09" width="27862.14" height="5405.71" xlink:href="clipedinicio_Images\clipedinicio_ImgID1.png"/>
   </g>
  </g>
  <g id="_2158166074000">
   <path class="fil0" d="M-3656.14 -1448.86c13.92,-185 -23.96,-95.52 16.25,-267.83 7.15,-30.65 3.33,-69.03 0.87,-99.47l-6.9 -5.15c-444.9,-84.64 -347.96,-682.47 63.78,-667.04 178.87,6.7 323.54,141.99 331.68,319.45 9.55,208.61 -129.01,298.75 -300.41,351.53l-2.28 123.32 23.78 5.27 -1.34 239.46c86.25,-33.49 210.12,-127.05 278.13,-178.06 245.66,-184.29 493.86,-461.24 553.24,-795.33 52.62,-296.07 -74.91,-503.37 -293.89,-581.8 -128.43,-46 -271.53,-30.8 -379.99,26.78 -53.34,28.32 -94.76,59.67 -128.14,97.73 -38.69,44.08 -55.48,87.98 -89.99,133.68 -71.56,-96.16 -71.74,-153.02 -218.18,-231.47 -109.23,-58.52 -252.12,-72.04 -379.81,-26.99 -224.72,79.28 -344.73,288.9 -293.98,582.38 76.32,441.28 502.36,801.4 827.18,973.54z"/>
   <path class="fil1" d="M-3656.14 -1448.86c36.66,799.53 -170.56,1378.92 748.02,1510.82l-182.46 -178.79c-459.6,-289.35 -379.48,-179.74 -440.11,-1332.48l1.32 -239.48 -23.78 -5.26 -81.35 -3.34 -0.92 -118.76 -3.6 0c2.47,30.43 6.28,68.81 -0.88,99.47 -40.2,172.3 -2.32,82.82 -16.24,267.82z"/>
   <path class="fil2" d="M-3645.92 -1821.31c1.59,-137.86 -28.36,-61.09 -116.73,-140.91 -42.33,-38.25 -84.21,-83.38 -92.03,-166.44 -31.91,-339.49 485.83,-369.91 518.21,-58.86 17.84,171.44 -124.92,295.34 -216.08,270.68l1.68 99.47c171.4,-52.78 309.96,-142.92 300.41,-351.53 -8.14,-177.46 -152.81,-312.75 -331.68,-319.45 -411.74,-15.43 -508.68,582.4 -63.78,667.04z"/>
   <path class="fil3" d="M-3645.92 -1821.31l6.9 5.15 3.6 0 -0.2 -203.45c-171.1,-84.85 -101.42,-264.72 34.3,-270.63 70.69,-3.08 135.76,50.84 144.92,111.53 11.16,74.01 -36.73,149.21 -94.22,150.73l-1.93 111.14c91.16,24.66 233.92,-99.24 216.08,-270.68 -32.38,-311.05 -550.12,-280.63 -518.21,58.86 7.82,83.06 49.7,128.19 92.03,166.44 88.37,79.82 118.32,3.05 116.73,140.91z"/>
   <path class="fil4" d="M-3635.62 -2019.61c46.98,3.87 40.97,8.3 85,-8.37 57.49,-1.52 105.38,-76.72 94.22,-150.73 -9.16,-60.69 -74.23,-114.61 -144.92,-111.53 -135.72,5.91 -205.4,185.78 -34.3,270.63z"/>
   <g>
    <path class="fil1" d="M3301.66 -1240.25c-21.3,13.71 -48.3,25.25 -78.29,32.44 -22.9,15.81 -8.36,4.86 -26.08,26.18 64.82,77.88 60.05,115.41 174.76,231.32 82.74,83.62 150.64,123.08 256.19,191.56 163.99,57.58 269.52,119.23 447,104.41 219.06,6.79 442.61,-91.6 575.49,-179.36 -7.56,-25.69 0.01,-9.52 -12.74,-31.67 -28.43,-30.23 -43.16,-38.63 -54.25,-75.34 -19.57,-9.61 -16.41,-10.08 -39.06,-23.63 -126.58,119.01 -439.43,182.42 -660.82,128.98 -299.63,-72.32 -429.99,-256.97 -540.54,-416.33l-41.66 11.44z"/>
    <path class="fil5" d="M3223.37 -1207.81c29.99,-7.19 56.99,-18.73 78.29,-32.44 -21.56,-65.58 -105.06,-154.75 -159.77,-373.48 -69.12,-276.33 -55.61,-667.02 264.72,-774.81 68.13,-22.93 146.28,-33.45 234.96,-15.1 59.32,12.27 164.49,43.96 194.26,99.91 1.29,2.43 2.46,5.57 3.56,7.92 1.17,2.49 2.48,6.47 3.38,8.58 0.95,2.19 2.03,6.05 3.28,9 16.58,-67.23 34.67,-78.51 104.26,-55.12 -19.31,-26.05 -184.35,-117.82 -229.1,-132.55 -256.14,-84.35 -535.89,30.45 -641.61,276.61 -104.41,243.12 -51.44,546.15 43.68,771.94 33.57,79.68 74.14,140.69 100.09,209.54z"/>
    <path class="fil5" d="M4500.91 -2201.96c65.77,12.81 80.4,19.79 75.2,79.8 150.1,-50.2 338.78,12.97 437.72,120.74 83.05,90.45 145.39,229.72 102.14,404.94 -79.76,323.01 -333.64,549.12 -532.23,655.77 11.09,36.71 25.82,45.11 54.25,75.34 40.93,-45.31 169.07,-96.54 349.27,-306.72 212.82,-248.22 353.47,-654.7 49.77,-919.02 -138.89,-120.87 -345.53,-148.86 -525.1,-113.72 -3.28,0.64 -7.52,1.43 -11.02,2.87z"/>
    <path class="fil0" d="M3738 -529.15l125.54 28.9c174.16,48.47 173.27,-2.19 211.7,-154.09 -177.48,14.82 -283.01,-46.83 -447,-104.41 -36.22,160.14 -62,183.6 109.76,229.6z"/>
    <path class="fil2" d="M3846.05 -2278.23c9.59,29.55 12.46,23.34 25.28,45.95 12.26,21.6 32.56,151.26 140.01,110.83 46.28,-17.41 62.68,-82.2 37.84,-123.64 -11.55,-19.25 -41.42,-30.71 -98.87,-88.26 -69.59,-23.39 -87.68,-12.11 -104.26,55.12z"/>
    <path class="fil2" d="M4576.11 -2122.16c5.2,-60.01 -9.43,-66.99 -75.2,-79.8 -57.94,39.33 -69.51,9.42 -118.48,30.2 -39.3,16.67 -67.51,80.28 -33.33,127.48 71.31,98.51 166.74,-22.36 179.4,-31.23 19.97,-13.99 33.96,-16.01 47.61,-46.65z"/>
   </g>
   <path class="fil5" d="M-3635.42 -1816.16l0.92 118.77 81.35 3.34 2.28 -123.32 -1.68 -99.47 1.93 -111.14c-44.03,16.67 -38.02,12.24 -85,8.37l0.2 203.45z"/>
   <path class="fil6" d="M-1674.65 -576.7c0,37.62 -25.82,84.26 -77.43,139.61 -12.75,14 -28.29,29.22 -46.95,46.32 -18.36,17.1 -37.95,34.22 -58.77,51.63 -20.51,17.1 -41.36,34.2 -62.49,51.3 -20.84,17.09 -40.43,32.65 -58.46,46.33 -58.46,45.09 -119.4,87.68 -183.15,127.78 -63.72,40.13 -128.42,75.25 -193.09,105.42 -64.98,30.47 -129.96,54.42 -194.63,72.14 -64.68,17.72 -127.19,26.42 -187.19,26.42 -65.62,0 -122.82,-9.32 -171.32,-28.29 -48.52,-18.98 -88.62,-45.4 -120.66,-80.21 -31.71,-34.53 -55.66,-76.2 -71.5,-125.31 -15.87,-48.83 -23.65,-103.23 -23.65,-163.26 -0.61,-54.71 4.98,-110.37 16.79,-166.95 11.84,-56.28 28.3,-111.94 49.76,-166.67 21.15,-54.41 46.65,-107.27 76.48,-157.95 29.86,-50.68 62.21,-97.64 97.33,-140.87 21.46,-26.11 45.41,-52.55 72.14,-79.59 26.75,-27.06 54.73,-53.17 84.26,-78.66 29.55,-25.49 59.38,-49.45 89.55,-71.53 30.47,-22.38 60.33,-41.97 89.24,-58.76 18.97,-11.2 42.9,-23.93 72.14,-38.25 29.22,-14.61 59.69,-28.3 92.04,-41.03 32.02,-12.76 64.06,-23.65 95.46,-32.35 31.7,-9.01 59.07,-13.37 82.07,-13.37 37.02,0 66.55,2.79 88.94,7.77 22.08,5.29 41.66,14 58.76,26.14 7.78,5.9 17.1,15.22 27.68,27.65 10.58,12.45 20.51,26.13 30.16,41.05 9.33,14.92 17.1,29.86 23.63,44.47 6.21,14.91 9.65,27.67 9.65,37.94 0,10.25 -4.98,25.8 -14.63,46.32 -9.63,20.84 -21.14,42.28 -33.89,64.36 -12.74,22.08 -25.5,42.9 -38.23,61.87 -12.76,19.29 -22.39,32.35 -28.94,39.8 -24.87,27.06 -51.6,40.74 -80.2,40.74 -24.26,0 -43.23,-7.16 -56.92,-22.08 -13.68,-14.91 -20.51,-33.58 -20.51,-56.27 0,-7.78 4.36,-19.9 13.68,-36.69 9.01,-16.79 24.26,-35.76 45.39,-56.9 21.47,-21.46 37.95,-41.05 49.76,-58.76 11.81,-18.05 19.28,-29.86 22.39,-36.07 -12.12,-8.4 -27.06,-15.25 -44.78,-19.9 -17.72,-4.98 -33.89,-7.47 -49.14,-7.47 -21.74,0 -48.8,4.98 -81.15,14.92 -32.02,10.27 -64.98,23 -98.87,38.87 -33.58,15.86 -66.55,33.27 -98.25,52.24 -32.04,19.28 -58.77,37.61 -80.54,55.35 -62.8,51.61 -120.33,106.96 -173.19,166.65 -52.86,59.38 -96.69,125.31 -131.22,197.76 -13.99,29.53 -27.04,60.64 -39.49,93.28 -12.42,32.34 -23.31,65.31 -32.34,98.89 -9.32,33.25 -16.46,66.52 -21.44,99.79 -5.29,32.97 -7.78,64.67 -7.78,95.15 0,35.76 4.03,69.03 12.12,100.12 8.39,31.1 21.77,57.54 40.74,80.23 18.66,22.39 43.54,40.11 74.32,52.86 30.46,12.74 68.4,18.95 113.17,18.95 48.81,0 98.57,-6.52 149.55,-19.89 51.01,-13.36 101.69,-31.4 152.37,-54.41 50.99,-22.69 101.05,-48.83 150.81,-78.35 49.75,-29.24 97.64,-60.03 143.64,-92.35 45.73,-32.04 89.24,-64.36 130.6,-96.4 41.36,-32.33 78.98,-62.8 112.87,-91.09 13.99,-11.81 28.93,-24.57 44.46,-38.26 15.25,-13.99 30.78,-27.98 45.7,-41.97 15.25,-13.99 30.17,-27.99 44.47,-41.98 14.3,-13.99 26.75,-26.73 37.63,-38.25 27.37,13.99 41.05,33.91 41.05,60.02zm864.4 35.76c0,28.3 -17.1,73.07 -51.93,133.69 -6.53,11.52 -15.85,25.52 -27.68,41.67 -11.81,15.86 -24.88,32.65 -39.48,50.06 -14.61,17.1 -29.86,34.84 -45.7,52.86 -15.87,17.74 -31.1,34.2 -46.34,49.45 -23.01,23 -48.5,45.7 -76.18,67.47 -27.67,21.77 -56.58,41.66 -87.37,59.07 -30.78,17.72 -62.18,32.04 -94.83,42.6 -32.35,10.57 -64.37,15.86 -96.07,15.86 -41.98,0 -81.16,-7.47 -117.54,-22.7 -36.38,-15.24 -68.11,-38.56 -95.17,-70.26 -27.03,-31.4 -48.19,-71.22 -63.72,-118.79 -15.56,-47.58 -23.33,-104.16 -23.33,-169.14 0,-44.16 2.38,-90.54 6.54,-138.69 7.98,-92.46 91.4,-815.15 131.94,-789.15l111.24 71.39c18.28,-44.95 -34.38,277.73 -38.28,297.38 -7.58,38.17 -14.92,79.28 -23.31,123.75 -8.09,44.47 -15.87,89.55 -22.7,135.58 -6.85,46.32 -12.76,91.71 -16.79,136.81 -4.36,44.78 -6.54,86.75 -6.54,125.6 0,41.98 3.41,80.23 10.27,114.43 6.52,34.22 17.4,63.74 32.01,88 14.94,24.26 34.22,42.91 57.53,56.28 23.32,13.38 51.92,20.21 85.19,20.21 36.38,0 72.14,-8.09 107.6,-24.24 35.12,-16.18 69.01,-36.71 101.36,-61.57 32.65,-24.87 63.43,-52.24 92.65,-82.41 28.91,-29.85 55.66,-59.07 80.23,-87.06 19.28,-23 36.38,-42.9 50.99,-59.38 14.3,-16.79 26.75,-31.09 36.38,-42.61 7.78,-9.02 16.79,-18.34 26.75,-28.3 9.94,-9.63 19.28,-14.3 27.98,-14.3 9.63,0 14.3,8.71 14.3,26.44zm318.07 -781.7c0,39.49 -10.24,73.07 -31.09,101.05 -19.89,27.99 -49.42,41.98 -88.29,41.98 -24.26,0 -51.32,-3.73 -81.15,-10.89 -28.94,-7.44 -43.54,-19.26 -43.54,-35.74 0,-29.55 9.01,-58.15 27.67,-84.9 18.66,-27.03 40.74,-49.11 66.85,-66.21 20.83,-12.14 34.51,-18.05 41.06,-18.05 34.81,0 61.25,4.67 80.2,13.99 18.97,9.35 28.29,28.94 28.29,58.77zm596.7 740.65c0.62,12.76 -4.98,29.86 -16.79,51.94 -12.14,21.75 -27.98,46.62 -48.52,73.99 -20.2,27.68 -43.82,57.53 -70.88,88.93 -27.06,31.71 -55.35,63.11 -85.19,94.84 -34.22,36.38 -69.96,71.5 -107.9,105.09 -37.95,33.88 -78.67,66.54 -121.57,97.94 -85.21,63.13 -161.07,94.84 -227.93,94.84 -73.37,0 -130.6,-24.57 -171.32,-73.69 -40.43,-50.06 -68.1,-110.06 -82.71,-180.66 -14.61,-69.65 -22.08,-141.77 -22.08,-215.79 0,-30.78 3.74,-79.28 11.19,-144.9 3.44,-32.63 7.16,-60.92 10.89,-84.57 3.41,-23.62 7.47,-42.9 11.81,-57.51 8.39,-28.62 26.44,-53.5 53.81,-74.63 27.98,-22.38 56.89,-33.58 87.36,-33.58 16.49,0 24.57,15.23 24.57,46.32 0,20.53 -1.87,44.16 -5.9,70.29 -4.06,26.11 -8.09,51.91 -12.14,77.41 -8.09,47.88 -14,90.8 -17.41,128.72 -3.73,37.95 -5.6,70.91 -5.6,98.9 0,61.23 8.71,123.43 25.5,185.92 17.09,63.75 47.88,95.46 92.03,95.46 45.09,0 97.33,-16.17 156.72,-49.12 29.85,-17.1 59.38,-35.76 89.24,-56.27 29.85,-20.85 59.69,-43.85 89.24,-69.35 30.47,-25.49 59.69,-51.31 87.67,-77.12 27.68,-25.8 55.05,-52.24 81.8,-79.59 26.72,-27.36 50.68,-52.86 72.12,-76.5 21.15,-23.62 39.81,-45.7 55.35,-65.6 0.61,-1.25 1.87,-3.11 3.41,-5.9 1.57,-2.8 3.11,-5.6 4.98,-8.09 1.87,-2.8 3.42,-5.29 5.29,-6.85 1.87,-1.85 3.72,-2.47 5.6,-1.85 8.39,0 14.91,6.52 18.97,19.89 5.6,12.74 8.39,23.01 8.39,31.09zm1160.42 -535.75c0,20.85 -8.71,52.86 -26.44,96.71 -8.4,21.16 -16.46,39.8 -24.55,55.35 -7.78,15.85 -15.87,29.22 -23.64,40.11 -43.21,61.56 -113.48,125.31 -211.43,191.24 -98.25,66.21 -196.19,124.36 -294.16,174.11 -64.36,33.28 -128.73,63.42 -192.76,89.86 -64.05,26.42 -128.42,49.76 -193.42,70.58 -3.72,4.67 -5.6,16.48 -5.6,35.45l0 30.17c0,16.79 0.95,40.41 2.8,70.58 1.87,29.85 4.36,66.85 7.47,110.68 2.8,43.54 5.29,82.41 7.16,115.99 1.85,33.89 2.8,63.43 2.8,88.93 0,23 -7.16,41.34 -21.15,54.71 -13.99,13.38 -32.33,19.9 -55.35,19.9 -66.86,0 -100.44,-144.88 -100.44,-434.37l0 -26.42c0,-34.22 2.18,-70.91 6.55,-110.4 4.34,-39.48 9.93,-87.05 17.4,-143.02 2.8,-17.41 5.91,-35.77 8.4,-54.74 2.8,-18.64 5.6,-38.84 8.7,-60 6.22,-41.97 11.81,-78.04 17.41,-108.52 5.29,-30.16 12.14,-59.69 19.9,-88.29 1.87,-7.78 4.05,-17.1 6.54,-28.32 2.49,-10.86 4.98,-23.31 8.09,-37.3 6.21,-27.99 12.43,-52.55 19.28,-73.69 6.52,-20.53 15.22,-40.74 25.49,-60.02 10.25,-19.59 23.32,-37.92 39.18,-54.71 9.63,-3.75 20.21,-5.6 31.71,-5.6 22.69,0 39.49,6.83 50.68,20.52 11.19,13.68 16.79,32.34 16.79,55.97 0,3.1 -2.18,12.45 -6.83,27.98 -4.67,15.56 -9.65,32.04 -15.56,49.45 -5.59,17.71 -11.19,34.5 -16.17,50.06 -5.29,15.84 -8.4,25.8 -9.63,29.22 -4.98,12.75 -9.32,30.16 -13.68,51.93 -3.11,17.72 -6.22,35.76 -9.63,54.41 -3.44,18.35 -6.86,37.94 -10.58,58.76 -3.42,19.9 -6.85,40.13 -9.34,60.33 -2.8,20.52 -4.96,39.8 -6.83,58.46 -1.88,18.33 -3.73,35.74 -4.98,51.92 -1.55,16.17 -2.8,29.85 -3.42,41.35 19.59,-8.39 43.21,-18.35 70.58,-30.16 27.67,-11.5 59.71,-24.88 96.09,-39.8 71.81,-29.85 135.56,-58.15 191.53,-84.87 56.27,-26.75 111.32,-56.28 164.8,-88.32 35.14,-21.13 69.34,-45.39 102.61,-72.14 32.94,-26.42 65.29,-55.66 97,-87.37 63.13,-64.36 94.53,-124.05 94.53,-179.4 0,-25.5 -24.88,-44.78 -74.64,-58.15 -24.85,-6.83 -50.04,-12.12 -75.55,-16.18 -25.5,-3.72 -50.68,-6.83 -75.56,-9.01 -24.85,-2.18 -49.11,-3.42 -72.43,-4.03 -23.33,-0.64 -45.1,-0.95 -65.31,-0.95 -119.4,0 -246.57,13.07 -380.58,39.18 -64.98,13.99 -157.02,41.36 -276.12,82.1 -13.99,5.29 -24.55,8.09 -32.02,8.09 -13.06,0 -24.26,-4.06 -32.96,-12.45 -9.01,-8.09 -13.37,-18.98 -13.37,-32.33 0,-29.55 8.7,-53.81 26.13,-71.83 17.1,-18.36 42.28,-34.2 74.92,-48.19 35.45,-15.25 89.88,-30.78 164.18,-46.65 36.99,-7.78 74.01,-14.61 111.32,-20.51 37.61,-5.6 75.25,-10.89 113.5,-15.87 76.48,-9.01 133.99,-13.68 172.24,-13.68 32.66,0 64.37,0.31 95.15,0.92 30.78,0.64 60.64,1.88 90.17,4.06 29.54,2.18 59.09,5.59 88.31,9.94 29.55,4.67 59.38,10.57 89.86,18.04 60.64,14.3 111.63,38.25 152.98,70.89 41.36,32.34 61.88,75.25 61.88,129.34zm1310.89 499.99c0,9.34 -6.83,25.5 -20.21,48.52 -31.4,45.39 -66.85,91.09 -106.03,136.48 -39.18,45.73 -80.84,88.94 -124.67,129.99 -44.16,41.05 -89.88,79.28 -137.76,114.73 -47.58,35.46 -95.77,66.24 -144.26,92.04 -48.52,25.8 -97.02,45.7 -145.21,59.69 -48.19,14 -94.84,20.52 -139.92,19.9 -97.02,0 -172.58,-28.29 -226.37,-84.57 -53.78,-56.58 -80.53,-141.79 -80.53,-256.22 0,-95.14 14.61,-187.8 44.15,-277.66 29.53,-89.86 79.59,-176.61 150.81,-259.63 13.38,-14.61 28.29,-28.6 45.08,-41.98 16.49,-13.37 34.2,-25.18 52.86,-35.43 18.34,-10.27 37.62,-18.66 57.21,-24.57 19.89,-6.21 39.81,-9.96 59.71,-10.88 4.96,0 11.5,0.61 20.21,1.54 8.39,1.25 17.4,3.44 27.36,6.54 9.63,3.11 18.95,6.83 27.99,11.5 9.32,4.35 16.48,9.94 22.08,16.79 16.79,19.29 30.45,39.49 40.41,60.01 9.96,20.84 15.55,43.54 16.79,68.41 1.23,27.99 -1.87,55.35 -9.63,82.39 -7.47,27.06 -20.23,54.74 -38.25,83.03 -17.72,27.98 -41.36,57.2 -70.58,87.37 -28.93,30.16 -64.36,62.51 -105.41,97.01 -26.11,21.77 -55.36,46.01 -87.06,72.45 -32.04,26.42 -70.27,54.1 -115.35,83.34 0,58.77 17.71,103.54 53.17,134.32 35.74,30.79 84.26,46.01 146.44,46.01 34.5,0 69.34,-4.67 104.77,-13.68 35.15,-9.01 69.65,-21.13 103.87,-36.07 33.89,-14.92 66.84,-31.71 98.57,-50.99 32.01,-18.97 61.87,-38.56 89.85,-58.77 51.61,-37.61 98.26,-74.94 140.23,-112.55 41.98,-37.33 83.65,-76.51 125.01,-117.84l49.11 -49.14c29.55,-26.11 51.32,-39.18 64.67,-39.18 7.16,0 10.89,5.6 10.89,17.1zm-695.86 -180.95c-0.64,-9.34 -2.18,-18.35 -4.36,-27.06 -1.87,-8.7 -5.29,-16.48 -9.32,-23.31 -4.37,-6.54 -9.35,-11.83 -14.63,-15.86 -5.6,-4.06 -11.81,-5.91 -19.26,-5.91 -32.04,1.85 -64.37,21.44 -96.4,58.77 -32.33,37.3 -62.49,86.75 -91.1,148 -6.85,13.36 -12.75,28.3 -17.73,45.09 -5.29,16.79 -10.25,33.89 -14.61,50.99 -4.67,17.4 -8.71,34.5 -11.81,51.6 -3.44,16.79 -6.24,32.04 -8.71,45.41 31.4,-23.64 60.62,-45.41 87.37,-65.61 26.73,-19.9 51.61,-40.72 74.63,-61.88 14.61,-13.37 29.53,-27.67 44.78,-43.21 15.22,-15.55 28.91,-31.73 41.33,-48.83 12.45,-17.1 22.39,-34.5 29.55,-52.86 7.47,-18.02 10.89,-36.69 10.27,-55.33zm1451.76 695.86c-11.77,-3 -27.37,-4.34 -46.34,-12.74 -38.25,-17.74 -68.73,-49.75 -91.11,-96.71 -21.75,-46.62 -37.31,-95.45 -46.32,-146.75 -9.34,-51.01 -16.79,-107.9 -23.01,-171.01 -75.88,141.46 -174.14,267.08 -295.08,377.15 -121.57,110.39 -247.19,165.74 -377.17,165.74 -35.76,0 -63.11,-19.28 -81.77,-57.53 -18.98,-37.62 -28.3,-76.79 -28.3,-117.54 0,-54.4 4.35,-95.14 13.69,-121.87 25.49,-77.74 54.71,-150.8 87.67,-218.61 33.28,-68.08 73.38,-134.94 120.95,-200.53 30.78,-42.62 65.93,-84.9 105.42,-127.5 40.1,-42.59 77.73,-72.75 113.19,-91.11 43.52,-23.62 106.34,-35.43 188.42,-35.43 28.6,0 52.86,15.53 73.06,47.26 19.9,31.71 35.15,68.4 45.4,110.37 10.26,44.16 15.55,78.67 15.55,103.85 9.01,-29.83 17.41,-60 24.57,-90.78 7.14,-30.78 13.66,-62.49 18.95,-95.14 5.6,-32.97 10.58,-67.17 15.25,-103.55 4.34,-36.07 8.7,-74.63 12.12,-115.99 1.25,-10.88 2.49,-24.87 3.72,-41.97 1.26,-17.1 2.8,-37 4.67,-60 3.42,-47.58 7.16,-87.37 10.89,-120.03 3.72,-32.34 8.39,-53.47 14.61,-63.13 14.63,-24.85 40.12,-37.3 76.5,-37.3 18.03,0 36.07,3.72 53.79,11.81 18.66,7.16 27.98,17.43 27.98,30.78 0,7.47 -1.25,19.28 -4.05,35.77 -2.47,16.17 -6.52,37.63 -11.19,63.74 -4.96,26.11 -11.51,58.46 -19.59,97.02 -8.4,38.54 -17.1,84.57 -27.04,138.05 -0.62,5.9 -2.49,18.02 -5.29,36.38 -3.11,18.02 -6.52,37.3 -10.27,57.84 -3.41,20.2 -6.83,39.18 -9.93,56.27 -3.11,17.41 -4.68,28.3 -5.29,32.33 -8.09,49.45 -14.3,95.45 -19.28,138.69 -4.98,42.9 -7.16,86.75 -7.16,131.21 0,35.13 0.94,76.79 2.49,124.68 1.87,48.52 6.54,95.78 13.68,141.17 7.47,45.7 22.85,57.84 32.04,68.4 57.33,65.75 166.54,35.8 243.59,2.42 98.74,-42.79 132.63,-238.94 156.8,-283.3 48.52,12.01 144.66,33.1 165.02,40.19 -74.37,80.8 -105.7,506.16 -531.83,397.4zm-300.38 -457.38c-15.86,-3.74 -27.98,-11.5 -36.07,-23.64 -8.39,-12.12 -12.43,-25.8 -12.43,-41.03 0,-12.14 1.85,-30.16 5.6,-53.81 3.72,-23.62 5.29,-41.97 5.29,-54.71 0,-10.88 -2.8,-23 -8.4,-36.69 -5.9,-13.68 -13.37,-26.44 -22.38,-38.25 -9.04,-11.81 -19.28,-22.08 -30.48,-30.16 -11.19,-8.09 -22.39,-12.43 -33.27,-12.43 -32.35,0 -75.87,33.89 -131.22,101.36 -27.98,34.5 -53.48,67.47 -77.12,99.2 -23.31,31.71 -44.77,62.8 -64.03,93.89 -21.46,33.27 -39.51,64.05 -54.43,92.04 -14.61,27.98 -27.36,52.86 -37.61,74.63 -35.76,77.1 -53.81,137.74 -53.81,182.2 0,56.28 19.28,84.57 57.53,84.57 33.89,0 80.54,-19.59 140.23,-59.07 61.26,-41.98 108.52,-79.59 142.1,-112.86 34.51,-36.71 63.44,-67.17 86.45,-92.04 23,-24.88 41.35,-45.09 54.71,-60.33 13.37,-14.92 25.49,-32.02 37.02,-50.99 11.19,-18.67 21.74,-39.49 32.32,-61.88z"/>
  </g>
 </g>
</svg>
